<?xml version="1.0" encoding="utf-8"?>
<!-- Generator: Adobe Illustrator 23.1.0, SVG Export Plug-In . SVG Version: 6.00 Build 0)  -->
<svg version="1.1" id="Calque_1" xmlns="http://www.w3.org/2000/svg" xmlns:xlink="http://www.w3.org/1999/xlink" x="0px" y="0px"
	 viewBox="0 0 301 169" style="enable-background:new 0 0 301 169;" xml:space="preserve">
<style type="text/css">
	.st0{fill:#1A1A1A;}
	.st1{enable-background:new    ;}
	.st2{fill:#FFFFFF;}
	.st3{fill:#AD3671;}
	.st4{font-family:'Montserrat-Light';}
	.st5{font-size:16.4241px;}
	.st6{fill:#B4467D;}
	.st7{fill:#BA5789;}
	.st8{fill:#C16794;}
	.st9{fill:#C778A0;}
	.st10{fill:#CE88AC;}
	.st11{fill:#D499B8;}
	.st12{fill:#DBA9C3;}
	.st13{fill:#E1BACF;}
	.st14{fill:#E8CADB;}
	.st15{fill:#13B5FE;}
	.st16{fill:#27BBFD;}
	.st17{fill:#3CC1FD;}
	.st18{fill:#50C8FC;}
	.st19{fill:#64CEFC;}
	.st20{fill:#79D4FB;}
	.st21{fill:#8DDAFB;}
	.st22{fill:#A1E1FA;}
	.st23{fill:#B6E7FA;}
	.st24{fill:#CAEDF9;}
	.st25{fill:#A56D8C;}
</style>
<rect id="Rectangle_8" x="-464.2" y="-60" class="st0" width="379.3" height="268.5"/>
<g id="Groupe_233" transform="translate(-279 -214)">
	<g id="Groupe_2853">
		<g class="st1">
			<path class="st2" d="M-77.6,303.9v13.2h-8.6v-13.3l-14.5-24h9.2l10,16.6l10-16.6h8.5L-77.6,303.9z"/>
			<path class="st2" d="M-65.4,302.8c0-8.6,6.7-14.8,15.8-14.8s15.7,6.1,15.7,14.8c0,8.6-6.6,14.8-15.7,14.8S-65.4,311.5-65.4,302.8
				z M-42.3,302.8c0-5-3.1-8-7.3-8c-4.2,0-7.4,3-7.4,8c0,5,3.2,8,7.4,8C-45.4,310.8-42.3,307.8-42.3,302.8z"/>
			<path class="st2" d="M0.7,288.5v28.7h-7.9v-3.4c-2.2,2.5-5.4,3.8-8.9,3.8c-7.2,0-12.3-4.1-12.3-12.9v-16.2h8.3v15
				c0,4.8,2.1,6.9,5.8,6.9c3.8,0,6.6-2.5,6.6-7.7v-14.2H0.7z"/>
			<path class="st2" d="M6.6,298.5c0-11.3,8.6-19.3,20.3-19.3c6.5,0,11.9,2.3,15.4,6.6l-5.6,5.1c-2.5-2.9-5.7-4.4-9.4-4.4
				c-7,0-12,4.9-12,12c0,7,5,12,12,12c3.7,0,6.9-1.5,9.4-4.4l5.6,5.1c-3.5,4.3-8.9,6.7-15.4,6.7C15.3,317.8,6.6,309.8,6.6,298.5z"/>
			<path class="st2" d="M72.7,300.8v16.4h-7.8v-3.6c-1.5,2.6-4.5,4-8.8,4c-6.7,0-10.7-3.7-10.7-8.7c0-5.1,3.6-8.6,12.3-8.6h6.6
				c0-3.6-2.1-5.7-6.6-5.7c-3,0-6.2,1-8.3,2.7l-3-5.8c3.1-2.2,7.8-3.5,12.4-3.5C67.7,288,72.7,292.1,72.7,300.8z M64.4,308.1v-2.9
				h-5.7c-3.9,0-5.1,1.4-5.1,3.4c0,2.1,1.8,3.5,4.7,3.5C61,312,63.4,310.7,64.4,308.1z"/>
			<path class="st2" d="M109.6,300.7v16.4h-8.3V302c0-4.6-2.1-6.8-5.8-6.8c-4,0-6.9,2.5-6.9,7.7v14.2h-8.3v-28.7h8v3.4
				c2.2-2.5,5.6-3.8,9.5-3.8C104.5,288,109.6,292,109.6,300.7z"/>
		</g>
		<text transform="matrix(1 0 0 1 113.5598 298.0228)" class="st2 st4 st5">©</text>
	</g>
</g>
<g id="Groupe_233_1_" transform="translate(-279 -214)">
	<g id="Groupe_2853_1_">
		<g class="st1">
			<path class="st3" d="M338.6,303.9v13.2h-8.6v-13.3l-14.5-24h9.2l10,16.6l10-16.6h8.5L338.6,303.9z"/>
			<path class="st3" d="M350.8,302.8c0-8.6,6.7-14.8,15.8-14.8s15.7,6.1,15.7,14.8c0,8.6-6.6,14.8-15.7,14.8
				S350.8,311.5,350.8,302.8z M373.9,302.8c0-5-3.1-8-7.3-8c-4.2,0-7.4,3-7.4,8c0,5,3.2,8,7.4,8
				C370.7,310.8,373.9,307.8,373.9,302.8z"/>
			<path class="st3" d="M416.8,288.5v28.7h-7.9v-3.4c-2.2,2.5-5.4,3.8-8.9,3.8c-7.2,0-12.3-4.1-12.3-12.9v-16.2h8.3v15
				c0,4.8,2.1,6.9,5.8,6.9c3.8,0,6.6-2.5,6.6-7.7v-14.2H416.8z"/>
			<path class="st3" d="M422.8,298.5c0-11.3,8.6-19.3,20.3-19.3c6.5,0,11.9,2.3,15.4,6.6l-5.6,5.1c-2.5-2.9-5.7-4.4-9.4-4.4
				c-7,0-12,4.9-12,12c0,7,5,12,12,12c3.7,0,6.9-1.5,9.4-4.4l5.6,5.1c-3.5,4.3-8.9,6.7-15.4,6.7
				C431.4,317.8,422.8,309.8,422.8,298.5z"/>
			<path class="st3" d="M488.9,300.8v16.4h-7.8v-3.6c-1.5,2.6-4.5,4-8.8,4c-6.7,0-10.7-3.7-10.7-8.7c0-5.1,3.6-8.6,12.3-8.6h6.6
				c0-3.6-2.1-5.7-6.6-5.7c-3,0-6.2,1-8.3,2.7l-3-5.8c3.1-2.2,7.8-3.5,12.4-3.5C483.8,288,488.9,292.1,488.9,300.8z M480.5,308.1
				v-2.9h-5.7c-3.9,0-5.1,1.4-5.1,3.4c0,2.1,1.8,3.5,4.7,3.5C477.2,312,479.6,310.7,480.5,308.1z"/>
			<path class="st3" d="M525.8,300.7v16.4h-8.3V302c0-4.6-2.1-6.8-5.8-6.8c-4,0-6.9,2.5-6.9,7.7v14.2h-8.3v-28.7h8v3.4
				c2.2-2.5,5.6-3.8,9.5-3.8C520.6,288,525.8,292,525.8,300.7z"/>
		</g>
		<text transform="matrix(1 0 0 1 529.6997 298.0228)" class="st3 st4 st5">©</text>
	</g>
</g>
<rect id="Rectangle_8_2_" x="-877.8" y="-60" class="st3" width="379.3" height="268.5"/>
<g id="Groupe_233_2_" transform="translate(-279 -214)">
	<g id="Groupe_2853_2_">
		<g class="st1">
			<path class="st2" d="M-491.2,303.9v13.2h-8.6v-13.3l-14.5-24h9.2l10,16.6l10-16.6h8.5L-491.2,303.9z"/>
			<path class="st2" d="M-479,302.8c0-8.6,6.7-14.8,15.8-14.8s15.7,6.1,15.7,14.8c0,8.6-6.6,14.8-15.7,14.8S-479,311.5-479,302.8z
				 M-455.9,302.8c0-5-3.1-8-7.3-8c-4.2,0-7.4,3-7.4,8c0,5,3.2,8,7.4,8C-459,310.8-455.9,307.8-455.9,302.8z"/>
			<path class="st2" d="M-412.9,288.5v28.7h-7.9v-3.4c-2.2,2.5-5.4,3.8-8.9,3.8c-7.2,0-12.3-4.1-12.3-12.9v-16.2h8.3v15
				c0,4.8,2.1,6.9,5.8,6.9c3.8,0,6.6-2.5,6.6-7.7v-14.2H-412.9z"/>
			<path class="st2" d="M-407,298.5c0-11.3,8.6-19.3,20.3-19.3c6.5,0,11.9,2.3,15.4,6.6l-5.6,5.1c-2.5-2.9-5.7-4.4-9.4-4.4
				c-7,0-12,4.9-12,12c0,7,5,12,12,12c3.7,0,6.9-1.5,9.4-4.4l5.6,5.1c-3.5,4.3-8.9,6.7-15.4,6.7C-398.3,317.8-407,309.8-407,298.5z"
				/>
			<path class="st2" d="M-340.9,300.8v16.4h-7.8v-3.6c-1.5,2.6-4.5,4-8.8,4c-6.7,0-10.7-3.7-10.7-8.7c0-5.1,3.6-8.6,12.3-8.6h6.6
				c0-3.6-2.1-5.7-6.6-5.7c-3,0-6.2,1-8.3,2.7l-3-5.8c3.1-2.2,7.8-3.5,12.4-3.5C-345.9,288-340.9,292.1-340.9,300.8z M-349.2,308.1
				v-2.9h-5.7c-3.9,0-5.1,1.4-5.1,3.4c0,2.1,1.8,3.5,4.7,3.5C-352.6,312-350.2,310.7-349.2,308.1z"/>
			<path class="st2" d="M-304,300.7v16.4h-8.3V302c0-4.6-2.1-6.8-5.8-6.8c-4,0-6.9,2.5-6.9,7.7v14.2h-8.3v-28.7h8v3.4
				c2.2-2.5,5.6-3.8,9.5-3.8C-309.1,288-304,292-304,300.7z"/>
		</g>
		<text transform="matrix(1 0 0 1 -300.0431 298.0228)" class="st2 st4 st5">©</text>
	</g>
</g>
<rect x="-890.5" y="-564.5" class="st0" width="116.7" height="68.5"/>
<image style="overflow:visible;" width="992" height="968" xlink:href="../../Capture d’écran 1400-03-28 à 12.32.22.png"  transform="matrix(0.5 0 0 0.5 -1382.0789 403.9086)">
</image>
<g>
	<rect x="-147.6" y="-576.5" class="st3" width="63.4" height="63.4"/>
	<rect x="-201.8" y="-576.5" class="st6" width="63.4" height="63.4"/>
	<rect x="-255.9" y="-576.5" class="st7" width="63.4" height="63.4"/>
	<rect x="-310" y="-576.5" class="st8" width="63.4" height="63.4"/>
	<rect x="-364.2" y="-576.5" class="st9" width="63.4" height="63.4"/>
	<rect x="-418.3" y="-576.5" class="st10" width="63.4" height="63.4"/>
	<rect x="-472.4" y="-576.5" class="st11" width="63.4" height="63.4"/>
	<rect x="-526.6" y="-576.5" class="st12" width="63.4" height="63.4"/>
	<rect x="-580.7" y="-576.5" class="st13" width="63.4" height="63.4"/>
	<rect x="-634.8" y="-576.5" class="st14" width="63.4" height="63.4"/>
</g>
<g>
	<rect x="-157.8" y="-759.2" class="st15" width="63.4" height="63.4"/>
	<rect x="-211.9" y="-759.2" class="st16" width="63.4" height="63.4"/>
	<rect x="-266.1" y="-759.2" class="st17" width="63.4" height="63.4"/>
	<rect x="-320.2" y="-759.2" class="st18" width="63.4" height="63.4"/>
	<rect x="-374.3" y="-759.2" class="st19" width="63.4" height="63.4"/>
	<rect x="-428.5" y="-759.2" class="st20" width="63.4" height="63.4"/>
	<rect x="-482.6" y="-759.2" class="st21" width="63.4" height="63.4"/>
	<rect x="-536.7" y="-759.2" class="st22" width="63.4" height="63.4"/>
	<rect x="-590.9" y="-759.2" class="st23" width="63.4" height="63.4"/>
	<rect x="-645" y="-759.2" class="st24" width="63.4" height="63.4"/>
</g>
<rect x="-545.4" y="-498.8" class="st25" width="34.3" height="25.7"/>
<g>
	<rect x="-16.3" y="-235.1" class="st15" width="70.3" height="70.3"/>
	<rect x="-86.4" y="-235.1" class="st16" width="70.3" height="70.3"/>
	<rect x="-156.2" y="-235.1" class="st17" width="70.3" height="70.3"/>
	<rect x="-226.4" y="-235.1" class="st18" width="70.3" height="70.3"/>
	<rect x="-296.5" y="-235.1" class="st19" width="70.3" height="70.3"/>
	<rect x="-367" y="-235.1" class="st20" width="70.3" height="70.3"/>
	<rect x="-437.5" y="-235.1" class="st21" width="70.3" height="70.3"/>
	<rect x="-508" y="-235.1" class="st22" width="70.3" height="70.3"/>
	<rect x="-578.4" y="-235" class="st23" width="70.3" height="70.3"/>
	<rect x="-648.7" y="-235.1" class="st24" width="70.3" height="70.3"/>
	
		<text transform="matrix(1 0 0 1 5.955363e-02 -146.4153)" style="fill:#3A3A3A; font-family:'Poppins-SemiBold'; font-size:10.4701px;">13B5FE</text>
	
		<text transform="matrix(1 0 0 1 -69.8652 -146.4153)" style="fill:#3A3A3A; font-family:'Poppins-SemiBold'; font-size:10.4701px;">27BBFD</text>
	
		<text transform="matrix(1 0 0 1 -140.8242 -146.4153)" style="fill:#3A3A3A; font-family:'Poppins-SemiBold'; font-size:10.4701px;">3CC1FD</text>
	
		<text transform="matrix(1 0 0 1 -210.7481 -146.4153)" style="fill:#3A3A3A; font-family:'Poppins-SemiBold'; font-size:10.4701px;">50C8FC</text>
	
		<text transform="matrix(1 0 0 1 -279.9502 -146.4153)" style="fill:#3A3A3A; font-family:'Poppins-SemiBold'; font-size:10.4701px;">64CEFC</text>
	
		<text transform="matrix(1 0 0 1 -349.875 -146.4153)" style="fill:#3A3A3A; font-family:'Poppins-SemiBold'; font-size:10.4701px;">79D4FB</text>
	
		<text transform="matrix(1 0 0 1 -420.834 -146.4153)" style="fill:#3A3A3A; font-family:'Poppins-SemiBold'; font-size:10.4701px;">8DDAFB</text>
	
		<text transform="matrix(1 0 0 1 -490.7578 -146.4153)" style="fill:#3A3A3A; font-family:'Poppins-SemiBold'; font-size:10.4701px;">A1E1FA</text>
	
		<text transform="matrix(1 0 0 1 -561.7168 -146.4153)" style="fill:#3A3A3A; font-family:'Poppins-SemiBold'; font-size:10.4701px;">B6E7FA</text>
	
		<text transform="matrix(1 0 0 1 -631.6416 -146.4153)" style="fill:#3A3A3A; font-family:'Poppins-SemiBold'; font-size:10.4701px;">CAEDF9</text>
</g>
<g>
	<rect x="-17.3" y="-412.4" class="st3" width="70.3" height="70.3"/>
	<rect x="-87.2" y="-412.4" class="st6" width="70.3" height="70.3"/>
	<rect x="-157.1" y="-412.4" class="st7" width="70.3" height="70.3"/>
	<rect x="-227.1" y="-412.4" class="st8" width="70.3" height="70.3"/>
	<rect x="-297" y="-412.4" class="st9" width="70.3" height="70.3"/>
	<rect x="-367.3" y="-412.4" class="st10" width="70.3" height="70.3"/>
	<rect x="-436.9" y="-412.4" class="st11" width="70.3" height="70.3"/>
	<rect x="-507.2" y="-412.4" class="st12" width="70.3" height="70.3"/>
	<rect x="-577.4" y="-412.4" class="st13" width="70.3" height="70.3"/>
	<rect x="-647.7" y="-412.4" class="st14" width="70.3" height="70.3"/>
	<text transform="matrix(1 0 0 1 -0.9125 -324.3289)" style="fill:#3A3A3A; font-family:'Poppins-SemiBold'; font-size:10.4701px;">AD3671</text>
	
		<text transform="matrix(1 0 0 1 -70.8373 -324.3289)" style="fill:#3A3A3A; font-family:'Poppins-SemiBold'; font-size:10.4701px;">B4467D</text>
	
		<text transform="matrix(1 0 0 1 -141.7963 -324.3289)" style="fill:#3A3A3A; font-family:'Poppins-SemiBold'; font-size:10.4701px;">BA5789</text>
	
		<text transform="matrix(1 0 0 1 -211.7202 -324.3289)" style="fill:#3A3A3A; font-family:'Poppins-SemiBold'; font-size:10.4701px;">C16794</text>
	
		<text transform="matrix(1 0 0 1 -280.9223 -324.3289)" style="fill:#3A3A3A; font-family:'Poppins-SemiBold'; font-size:10.4701px;">C778A0</text>
	
		<text transform="matrix(1 0 0 1 -350.8471 -324.3289)" style="fill:#3A3A3A; font-family:'Poppins-SemiBold'; font-size:10.4701px;">CE88AC</text>
	
		<text transform="matrix(1 0 0 1 -421.8061 -324.3289)" style="fill:#3A3A3A; font-family:'Poppins-SemiBold'; font-size:10.4701px;">D499B8</text>
	
		<text transform="matrix(1 0 0 1 -491.7299 -324.3289)" style="fill:#3A3A3A; font-family:'Poppins-SemiBold'; font-size:10.4701px;">DBA9C3</text>
	
		<text transform="matrix(1 0 0 1 -562.6889 -324.3289)" style="fill:#3A3A3A; font-family:'Poppins-SemiBold'; font-size:10.4701px;">E1BACF</text>
	
		<text transform="matrix(1 0 0 1 -632.6137 -324.3289)" style="fill:#3A3A3A; font-family:'Poppins-SemiBold'; font-size:10.4701px;">E8CADB</text>
</g>
</svg>
